<?xml version="1.0" encoding="UTF-8" standalone="no"?>
<!-- Created with Inkscape (http://www.inkscape.org/) -->

<svg
   width="27.013mm"
   height="27.013mm"
   viewBox="0 0 27.013 27.013"
   version="1.1"
   id="svg323"
   inkscape:version="1.2.2 (732a01da63, 2022-12-09)"
   sodipodi:docname="parseley.svg"
   xmlns:inkscape="http://www.inkscape.org/namespaces/inkscape"
   xmlns:sodipodi="http://sodipodi.sourceforge.net/DTD/sodipodi-0.dtd"
   xmlns="http://www.w3.org/2000/svg"
   xmlns:svg="http://www.w3.org/2000/svg">
  <sodipodi:namedview
     id="namedview325"
     pagecolor="#ffffff"
     bordercolor="#000000"
     borderopacity="0.25"
     inkscape:showpageshadow="2"
     inkscape:pageopacity="0.0"
     inkscape:pagecheckerboard="0"
     inkscape:deskcolor="#d1d1d1"
     inkscape:document-units="mm"
     showgrid="false"
     inkscape:zoom="0.77771465"
     inkscape:cx="120.22404"
     inkscape:cy="356.17177"
     inkscape:window-width="1920"
     inkscape:window-height="1027"
     inkscape:window-x="-8"
     inkscape:window-y="1072"
     inkscape:window-maximized="1"
     inkscape:current-layer="layer1" />
  <defs
     id="defs320" />
  <g
     inkscape:label="Layer 1"
     inkscape:groupmode="layer"
     id="layer1">
    <path
       id="path1858"
       style="fill:#009044;fill-opacity:1;stroke-width:0.5;stroke-dasharray:none"
       d="m 2.553347,2.8142763 c -0.240568,0.23831 -0.376846,0.78531 -0.240073,1.56578 0.218838,1.24873 2.096871,2.60935 0.416565,1.9425 -1.680296,-0.66685 -1.82391499,0.50141 -0.962118,1.45615 0.861797,0.95474 3.718258,2.4062297 4.020214,2.5870797 0.301969,0.18086 1.765968,1.23247 -0.12095,0.75311 -1.886917,-0.47936 -2.853377,-1.6054697 -3.522894,-1.5584597 -0.669517,0.047 0.187454,1.4422597 0.187454,1.4422597 0,0 -0.179147,0.0154 -1.38379799,-0.17795 -1.204652,-0.19334 -1.171489,0.5624 -0.401583,1.12728 0.76990399,0.56487 1.05100299,1.42624 2.00097199,1.55663 0.949969,0.13039 1.264136,0.5118 0.606576,0.75932 -0.657569,0.24752 -0.89196,0.60694 -0.89196,0.60694 0,0 0.584741,0.75573 2.338609,0.55177 1.753859,-0.20398 4.755297,-0.20741 7.160894,0.75237 2.405575,0.95978 0.04172,1.529 -1.630085,1.08416 -1.671819,-0.44483 -3.807893,-1.84676 -3.93617,-1.73495 -0.128269,0.11181 -0.152742,0.81413 -0.152742,0.81413 0,0 -1.33769,-0.87664 -1.947986,-0.51121 -0.610289,0.36544 0.328939,1.11181 0.542995,1.56541 0.214055,0.4536 0.76513,1.00558 -0.454933,0.63325 -1.220052,-0.37233 -1.953089,-1.43883 -1.360047,0.0906 0.593034,1.52945 -0.378562,0.84409 -0.378562,0.84409 0,0 -1.04527,1.28833 -0.09902,1.99184 0.946246,0.7035 1.177268,0.36554 0.711448,0.93069 -0.465815,0.56515 0.582011,0.90977 1.357489,0.61498 0.775481,-0.29479 3.193339,-0.92173 2.056148,-0.023 -1.13719,0.89871 -0.639872,2.06006 0.457493,1.68453 1.09736,-0.37553 0.781343,0.63256 1.153957,0.64823 0.372602,0.0157 2.389893,-2.79377 3.052248,-2.24616 0.662347,0.54762 -0.808897,0.64234 -0.882457,1.51316 -0.07352,0.87083 0.994444,1.63806 1.712294,1.28988 0.717857,-0.34817 1.535273,0.33445 1.736053,-0.22911 0.200765,-0.56355 0.05401,-1.16048 0.861633,-0.28063 0.807622,0.87985 1.722556,-1.79779 2.496474,-2.3576 0.773879,-0.55984 2.373699,-1.31807 5.424111,0.84848 3.050415,2.16656 3.163695,3.66284 3.163695,3.66284 l 0.93837,-0.42898 0.42898,-0.93837 c 0,0 -1.49628,-0.11328 -3.662836,-3.1637 -2.166552,-3.05041 -1.408316,-4.65023 -0.848478,-5.42411 0.559835,-0.77389 3.237454,-1.68884 2.357594,-2.49647 -0.879841,-0.80763 -0.28292,-0.66087 0.28064,-0.86164 0.56355,-0.20078 -0.11906,-1.01819 0.22911,-1.73605 0.34817,-0.71785 -0.41906,-1.78581 -1.289888,-1.71229 -0.870823,0.0736 -0.965542,1.5448 -1.513154,0.88246 -0.547619,-0.66236 2.261832,-2.6796497 2.246162,-3.0522497 -0.0157,-0.37261 -1.023765,-0.0566 -0.648234,-1.15396 0.375523,-1.09736 -0.785819,-1.59468 -1.684531,-0.45749 -0.898712,1.13719 -0.271771,-1.28067 0.02302,-2.05615 0.294793,-0.77549 -0.04983,-1.82331 -0.614981,-1.35749 -0.565143,0.46582 -0.227174,0.23481 -0.930692,-0.71145 -0.703506,-0.94624 -1.991838,0.099 -1.991838,0.099 0,0 0.685357,0.97159 -0.844091,0.37856 -1.529448,-0.59304 -0.462953,0.14 -0.09062,1.36004 0.372333,1.22007 -0.17965,0.669 -0.633251,0.45495 -0.453603,-0.21406 -1.199969,-1.1533 -1.565406,-0.54301 -0.365435,0.61031 0.511205,1.948 0.511205,1.948 0,0 -0.70232,0.0245 -0.814128,0.15274 -0.111804,0.12828 1.29012,2.26435 1.734955,3.9361697 0.444833,1.6718 -0.124389,4.03566 -1.084161,1.63008 -0.959785,-2.4055897 -0.956348,-5.4070297 -0.752377,-7.1608897 0.203969,-1.75387 -0.551766,-2.33861 -0.551766,-2.33861 0,0 -0.359422,0.23439 -0.606941,0.89196 -0.247521,0.65755 -0.628925,0.34339 -0.759318,-0.60658 -0.130394,-0.94997 -0.991759,-1.23107 -1.556635,-2.00097005 -0.564877,-0.76991 -1.320616,-0.80307 -1.127283,0.40158 0.193334,1.20465005 0.177953,1.38380005 0.177953,1.38380005 0,0 -1.395255,-0.85697 -1.442263,-0.18745 -0.04701,0.66951 1.079109,1.63597 1.558463,3.52289 0.479357,1.88692 -0.572249,0.42292 -0.753105,0.12095 -0.180856,-0.30195 -1.632346,-3.15842 -2.587085,-4.02021 -0.954741,-0.86180005 -2.123004,-0.71818 -1.45615,0.96211 0.666854,1.68032 -0.69377,-0.19772 -1.942507,-0.41656 -0.780458,-0.13677 -1.32748,-5.1e-4 -1.56577,0.24007 -0.04766,0.0481 -0.08325,0.10017 -0.105603,0.1553 -0.05513,0.0224 -0.107185,0.0579 -0.155299,0.1056 z" />
  </g>
</svg>
